<?xml version="1.0" standalone="no"?>
<!DOCTYPE svg PUBLIC "-//W3C//DTD SVG 20010904//EN"
 "http://www.w3.org/TR/2001/REC-SVG-20010904/DTD/svg10.dtd">
<svg version="1.0" xmlns="http://www.w3.org/2000/svg"
 width="171.000000pt" height="171.000000pt" viewBox="0 0 171.000000 171.000000"
 preserveAspectRatio="xMidYMid meet">
<metadata>
Created by potrace 1.10, written by Peter Selinger 2001-2011
</metadata>
<g transform="translate(0.000000,171.000000) scale(0.100000,-0.100000)"
fill="#000000" stroke="none">
<path d="M792 1669 c-50 -19 -240 -134 -274 -167 -22 -21 -48 -36 -66 -37 -50
-4 -133 -79 -117 -105 8 -13 -1 -13 -26 0 -15 9 -33 4 -83 -20 -35 -18 -76
-45 -91 -60 -26 -27 -27 -33 -23 -95 3 -36 12 -72 19 -81 10 -13 10 -17 -1
-24 -9 -6 -12 -29 -11 -77 2 -75 14 -93 92 -141 52 -32 71 -15 77 69 4 60 3
64 -24 86 -16 13 -22 21 -13 18 12 -4 20 4 31 32 19 45 17 67 22 -257 5 -296
3 -273 16 -265 5 3 10 1 10 -4 0 -6 7 -11 15 -11 8 0 15 -4 15 -9 0 -5 8 -11
18 -15 9 -3 31 -14 47 -25 17 -10 33 -16 37 -14 5 2 8 0 8 -6 0 -6 12 -17 28
-26 26 -15 26 -16 2 -9 -14 3 -50 21 -80 39 -30 18 -74 42 -97 54 l-43 21 0
130 0 131 -62 39 c-34 21 -66 36 -70 34 -14 -9 10 -32 63 -62 l49 -27 0 -131
0 -132 132 -73 c73 -41 136 -75 140 -77 5 -2 8 8 8 22 0 17 4 24 13 20 7 -2
22 4 34 15 11 11 24 17 29 13 4 -4 4 -2 0 5 -3 6 -2 14 4 18 6 4 11 -43 13
-127 l3 -133 2 147 c1 85 6 149 12 153 7 4 10 -55 10 -169 0 -97 -2 -176 -3
-176 -2 0 -57 31 -123 68 -65 37 -183 103 -260 147 l-142 79 0 180 c0 210 -3
250 -11 186 -3 -25 -4 -119 -1 -210 l5 -164 125 -73 c69 -40 152 -87 185 -104
33 -17 62 -34 65 -38 6 -7 145 -81 154 -81 17 0 25 62 27 207 1 87 4 162 7
167 10 19 19 -18 12 -50 -5 -19 -4 -32 1 -28 13 8 11 -10 -3 -25 -7 -8 -8 -11
-2 -8 6 3 10 -8 11 -30 1 -44 18 -78 47 -91 20 -10 20 -11 -6 -11 -15 -1 -31
-9 -37 -18 -12 -24 -5 -131 10 -149 15 -18 103 -64 121 -64 7 0 42 18 78 39
65 39 240 142 292 171 15 8 53 30 85 49 32 18 76 44 99 56 22 13 60 35 82 49
l42 26 1 178 c1 97 1 185 0 194 -1 10 16 44 38 76 83 122 103 179 30 84 -20
-26 -112 -141 -204 -257 -92 -115 -172 -217 -179 -226 -6 -8 -92 -61 -190
-117 l-179 -101 -59 31 -58 30 0 115 c0 80 4 122 14 142 16 30 80 91 96 91 6
0 31 13 58 30 l47 29 5 -134 5 -134 68 39 68 40 35 -33 c20 -17 43 -36 52 -40
21 -11 -84 93 -118 116 l-24 17 34 30 c19 16 39 29 45 30 5 0 23 -14 41 -31
l32 -31 108 109 c60 59 161 157 224 216 63 59 103 100 88 92 -15 -9 -32 -14
-37 -11 -5 4 -12 2 -16 -4 -12 -20 -24 -9 -25 23 0 17 0 39 -1 47 0 8 3 53 7
100 6 76 4 87 -12 101 -19 16 -345 204 -442 254 l-53 27 -55 -21 c-54 -20 -59
-17 -27 21 18 20 4 51 -30 70 -61 34 -94 45 -115 37z m81 -53 l56 -33 -152
-87 -152 -87 -52 28 c-29 15 -53 30 -53 33 0 3 67 44 148 92 81 47 148 86 148
87 1 1 27 -14 57 -33z m382 -221 c132 -74 243 -135 247 -135 4 0 8 -30 8 -67
l0 -68 -66 -37 -65 -38 2 72 2 72 -187 107 -187 107 -96 -56 -96 -56 -53 29
c-30 16 -50 32 -46 36 9 10 285 168 293 169 3 0 113 -61 244 -135z m-643 -45
c135 -78 166 -100 138 -100 -6 0 -27 -11 -48 -24 l-38 -24 -40 24 c-21 13 -90
52 -151 86 -62 35 -113 65 -113 68 0 6 93 59 100 57 3 -1 72 -40 152 -87z
m143 80 c-3 -5 -12 -10 -18 -10 -7 -1 -24 -16 -38 -35 -22 -29 -29 -33 -38
-21 -9 10 -4 19 21 38 44 33 86 50 73 28z m-407 -123 c30 -16 51 -31 47 -35
-3 -4 -34 -23 -68 -42 l-62 -36 -3 -67 c-2 -37 -5 -67 -8 -67 -2 0 -32 14 -66
31 l-61 31 6 66 c3 36 9 68 14 69 4 2 37 21 73 43 36 21 67 38 70 37 3 -1 29
-15 58 -30z m895 -121 l67 -38 0 -181 0 -182 -52 -32 -53 -31 -5 108 -5 109
-154 -89 c-84 -48 -158 -93 -164 -99 -29 -29 -23 -5 12 47 22 31 47 73 56 93
12 25 23 35 34 32 18 -4 60 17 205 105 57 34 107 69 110 77 3 8 2 15 -2 15 -4
0 -78 -42 -164 -94 -87 -52 -158 -90 -158 -85 0 5 -31 -13 -69 -40 l-68 -49
-44 29 c-25 16 -46 24 -48 18 -4 -13 25 -40 58 -55 23 -10 23 -10 -16 -37 -60
-42 -65 -38 -61 45 l3 72 182 106 c101 58 183 110 183 115 0 6 -43 34 -96 64
-52 29 -92 56 -89 59 3 4 27 18 53 32 l47 26 85 -51 c47 -28 115 -68 153 -89z
m-763 85 l24 -19 -24 1 c-14 0 -35 -2 -47 -6 -20 -7 -21 -6 -10 17 14 31 24
32 57 7z m400 -2 c0 -6 -6 -7 -12 -4 -7 4 -5 0 5 -8 25 -21 21 -32 -7 -14 -21
14 -26 14 -55 -4 -41 -25 -43 -24 -29 6 8 18 19 25 39 25 15 0 31 5 34 10 7
12 25 4 25 -11z m-313 -103 c9 -8 -4 -20 -52 -45 l-65 -35 0 -73 c0 -70 -5
-83 -26 -65 -22 20 -87 55 -79 43 5 -9 3 -12 -5 -9 -17 5 -21 37 -14 110 l6
57 66 39 67 39 45 -25 c25 -14 50 -30 57 -36z m71 14 c31 -14 28 -22 -23 -52
-43 -26 -65 -23 -26 4 14 10 16 18 10 36 -5 12 -15 25 -23 28 -8 3 -17 12 -20
19 -3 10 5 8 27 -5 18 -11 42 -24 55 -30z m257 8 c44 -24 55 -34 44 -40 -8 -5
-76 -45 -151 -90 l-138 -81 0 -68 c0 -38 -2 -69 -5 -69 -3 0 -31 13 -63 29
-53 27 -57 31 -56 62 1 19 2 51 3 71 1 36 3 38 149 126 81 50 150 90 153 91 3
1 32 -13 64 -31z m104 -17 c29 -19 19 -40 -29 -65 -27 -14 -52 -22 -55 -17 -3
5 4 12 15 16 21 7 54 58 43 69 -10 9 10 7 26 -3z m357 -64 c-2 -12 1 -30 9
-40 11 -16 11 -24 -1 -52 -17 -41 -18 -91 -3 -134 9 -24 9 -35 0 -44 -21 -21
-27 9 -23 120 2 60 3 131 3 158 -1 40 1 47 10 32 6 -10 8 -28 5 -40z m-840
-42 c-3 -9 -10 -13 -16 -10 -5 3 -8 0 -5 -7 2 -7 6 -47 9 -88 2 -41 9 -76 15
-78 6 -2 11 -9 11 -15 0 -5 -3 -7 -7 -4 -3 4 -12 2 -20 -5 -20 -16 -33 1 -35
48 -2 73 10 145 28 165 19 21 30 18 20 -6z m994 -47 l0 -63 -55 -40 c-31 -22
-60 -41 -65 -43 -6 -2 -10 25 -10 65 l0 68 63 37 c34 20 63 37 65 38 1 0 2
-28 2 -62z m-1307 17 l57 -29 0 -72 0 -73 -64 36 -63 35 -2 70 c-1 38 2 68 6
66 4 -2 34 -17 66 -33z m503 -98 c-8 -25 -10 -57 -5 -99 6 -49 5 -66 -7 -78
-12 -12 -14 -12 -14 8 0 12 -10 26 -22 33 -19 10 -19 13 -5 20 15 9 20 26 31
108 3 19 11 38 18 42 18 11 19 8 4 -34z m-315 -3 l59 -35 0 -50 c0 -56 9 -60
54 -25 l32 24 62 -37 c60 -35 61 -37 55 -71 -3 -19 -13 -39 -22 -44 -8 -5 -26
-21 -40 -34 -15 -15 -27 -20 -29 -14 -5 17 -22 15 -22 -3 0 -19 -6 -19 -27 0
-66 58 -112 81 -113 58 -1 -5 -19 -28 -41 -53 l-41 -44 4 182 c2 100 5 182 7
182 2 0 30 -16 62 -36z m538 -46 c-30 -57 -101 -153 -199 -267 -58 -68 -119
-141 -136 -162 l-31 -39 -104 91 c-57 50 -105 94 -107 98 -1 4 13 22 32 40
l35 34 66 -58 67 -58 81 81 c70 68 294 262 304 262 2 0 -2 -10 -8 -22z m240
-35 c0 -35 -1 -36 -11 -15 -6 12 -16 22 -22 22 -9 1 21 30 31 30 2 0 3 -17 2
-37z m-33 -35 c-3 -13 -6 -44 -6 -69 0 -45 -1 -46 -48 -70 -56 -28 -76 -58
-61 -95 12 -33 12 -32 -10 -44 -43 -22 -51 -5 -49 99 0 53 -1 105 -3 116 -3
12 2 20 14 23 16 3 17 -4 15 -62 -1 -41 2 -70 10 -78 9 -9 12 4 12 59 l0 71
58 36 c67 42 76 44 68 14z m372 -184 l-3 -186 -335 -193 -335 -194 -57 32 -58
32 0 72 c0 40 2 73 5 73 2 0 28 -14 57 -31 l53 -32 80 43 c44 23 169 94 278
157 l197 114 0 87 1 87 50 63 c27 34 54 62 59 62 7 0 9 -67 8 -186z m-308 76
l21 -16 -20 -18 c-42 -38 -61 0 -44 85 l7 34 7 -34 c4 -19 17 -42 29 -51z
m138 -182 c-13 -10 -27 -18 -33 -18 -5 0 1 9 15 19 14 11 25 31 26 48 4 47 7
50 11 9 4 -33 0 -43 -19 -58z m-949 22 c30 -28 51 -50 47 -50 -5 0 -35 16 -67
35 -39 25 -56 41 -52 50 8 22 12 19 72 -35z m931 26 c0 -15 -12 -34 -31 -50
-34 -29 -51 -33 -43 -11 4 8 9 15 13 15 3 0 15 16 25 35 22 41 36 45 36 11z"/>
<path d="M1445 1217 c-38 -21 -40 -25 -41 -72 -1 -35 0 -39 3 -13 3 29 10 40
32 49 26 12 57 46 49 54 -2 2 -21 -6 -43 -18z"/>
<path d="M150 1231 c0 -12 29 -41 40 -41 5 0 18 -10 30 -22 l20 -22 0 25 c0
20 -10 30 -45 47 -25 12 -45 18 -45 13z"/>
<path d="M347 1110 c3 -11 10 -20 17 -20 6 0 24 -12 39 -26 l29 -26 -4 23 c-2
16 -17 32 -45 47 -40 22 -41 22 -36 2z"/>
<path d="M550 1001 c6 -12 19 -25 28 -28 9 -3 25 -15 34 -27 l18 -21 0 26 c0
24 -14 35 -83 67 -5 3 -4 -5 3 -17z"/>
<path d="M173 1015 c0 -7 6 -11 14 -8 7 3 13 -1 13 -8 0 -7 3 -9 7 -6 3 4 11
-1 18 -9 10 -14 12 -15 12 -1 0 8 -15 22 -32 30 -25 12 -32 12 -32 2z"/>
<path d="M1412 616 c-2 -81 -5 -101 -19 -112 -10 -7 -13 -14 -7 -14 27 0 35
29 31 126 l-3 99 -2 -99z"/>
<path d="M750 233 c5 -2 7 -10 4 -15 -4 -6 -3 -9 2 -5 19 11 46 -22 47 -57 1
-20 5 -36 10 -36 4 0 6 -4 2 -9 -3 -5 -1 -12 5 -16 6 -4 10 14 10 48 0 52 -1
54 -37 72 -21 11 -41 20 -46 21 -4 2 -3 0 3 -3z"/>
<path d="M863 203 c-9 -3 -12 -23 -11 -56 1 -51 2 -51 5 -9 2 23 8 42 12 42 4
0 8 7 8 15 0 8 -1 15 -1 14 -1 0 -7 -3 -13 -6z"/>
<path d="M162 810 c7 -10 15 -17 19 -15 11 7 47 -38 52 -65 3 -20 5 -17 6 10
1 31 -4 38 -44 62 -37 22 -43 24 -33 8z"/>
<path d="M229 658 c-4 -95 -3 -138 4 -138 4 0 7 34 7 75 0 41 -2 75 -5 75 -3
0 -5 -6 -6 -12z"/>
<path d="M815 651 c3 -5 2 -12 -2 -14 -12 -8 -7 -302 6 -323 8 -14 10 27 11
164 0 121 -4 182 -11 182 -5 0 -8 -4 -4 -9z"/>
<path d="M283 483 c4 -6 20 -16 37 -23 16 -7 27 -17 23 -23 -3 -5 -1 -7 5 -3
6 3 16 1 24 -6 7 -7 20 -14 28 -16 8 -2 17 -7 20 -10 3 -4 12 -8 20 -10 26 -6
-1 13 -84 58 -44 24 -76 39 -73 33z"/>
</g>
</svg>
