<?xml version="1.0" standalone="no"?>
<!DOCTYPE svg PUBLIC "-//W3C//DTD SVG 20010904//EN"
 "http://www.w3.org/TR/2001/REC-SVG-20010904/DTD/svg10.dtd">
<svg version="1.0" xmlns="http://www.w3.org/2000/svg"
 width="300.000000pt" height="300.000000pt" viewBox="0 0 300.000000 300.000000"
 preserveAspectRatio="xMidYMid meet">
<metadata>
Created by potrace 1.10, written by Peter Selinger 2001-2011
</metadata>
<g transform="translate(0.000000,300.000000) scale(0.100000,-0.100000)"
fill="#000000" stroke="none">
<path d="M1648 2826 c-64 -66 -126 -132 -137 -146 l-21 -25 -59 61 -60 61 -33
-34 -32 -33 93 -88 93 -87 172 173 c94 95 172 174 173 176 2 1 -14 16 -35 33
l-38 30 -116 -121z m137 41 c-8 -12 -78 -84 -155 -161 l-140 -138 -72 69 c-51
50 -69 75 -65 87 6 15 9 15 37 1 16 -8 30 -18 30 -21 0 -3 -5 -2 -12 2 -7 4
-8 3 -4 -4 4 -7 13 -12 20 -12 8 0 20 -10 28 -22 28 -41 59 -20 213 144 80 85
104 101 122 86 10 -8 9 -15 -2 -31z"/>
<path d="M1200 2145 l0 -505 45 0 c34 0 47 4 52 17 4 9 1 19 -5 21 -13 4 -17
42 -4 42 4 0 22 15 41 32 32 29 33 32 17 44 -17 12 -18 31 -14 253 l4 239 59
56 c74 68 51 76 -27 9 l-55 -48 -1 -268 -1 -268 -31 -29 c-20 -19 -28 -34 -24
-45 6 -16 -9 -34 -29 -35 -4 0 -7 212 -6 470 l2 471 21 -18 c12 -10 26 -22 31
-28 6 -5 28 -22 50 -38 84 -58 82 -55 60 -71 -11 -8 -44 -37 -72 -64 l-53 -49
0 -92 c0 -55 -5 -99 -12 -111 -15 -23 -1 -55 23 -55 11 0 13 23 11 120 l-4
120 68 68 68 67 35 -28 c20 -16 42 -32 49 -36 8 -5 41 14 90 51 42 32 79 60
82 63 3 3 35 29 73 59 l67 53 0 -191 0 -190 -34 -16 c-36 -17 -51 -46 -33 -64
17 -17 29 -13 25 10 -2 13 5 27 20 36 l22 15 0 -222 c0 -149 3 -221 10 -218 7
2 11 145 10 438 0 238 -2 435 -3 437 -3 3 -100 -69 -233 -173 -53 -41 -88 -63
-96 -58 -7 4 -44 33 -83 63 -38 31 -76 61 -85 68 -8 6 -41 32 -72 57 l-58 46
0 -505z"/>
<path d="M2055 2590 c-3 -5 6 -21 21 -35 l27 -25 -22 -24 c-35 -37 -5 -45 31
-8 l31 30 -35 36 c-38 39 -43 41 -53 26z"/>
<path d="M1992 2521 c-32 -29 -40 -55 -23 -66 6 -3 16 7 23 22 8 17 25 31 46
37 29 8 45 26 23 26 -5 0 -16 2 -24 5 -7 3 -28 -7 -45 -24z"/>
<path d="M2173 2425 c-183 -34 -273 -58 -273 -72 0 -16 -7 -17 86 7 126 32
328 60 433 60 180 -1 294 -43 325 -120 21 -54 20 -70 -9 -136 -50 -112 -248
-278 -488 -408 -58 -31 -85 -52 -79 -58 17 -17 277 137 407 243 262 211 280
405 45 484 -87 29 -292 29 -447 0z"/>
<path d="M1467 2336 c-8 -11 -34 -40 -58 -63 l-43 -42 -2 -125 -1 -125 31 -35
c24 -26 29 -37 21 -50 -12 -20 16 -52 39 -43 27 11 18 47 -23 88 l-40 39 -3
114 -3 115 42 45 c24 24 53 46 65 48 30 4 37 43 9 51 -13 3 -25 -2 -34 -17z"/>
<path d="M2200 2352 c-14 -1 -87 -14 -162 -28 -99 -19 -138 -30 -138 -40 0
-17 -3 -17 67 1 121 32 403 58 403 37 0 -4 -33 -32 -72 -62 -40 -30 -96 -73
-125 -95 -28 -22 -94 -71 -147 -110 l-95 -70 -1 -78 c0 -59 3 -78 13 -74 8 2
11 23 9 68 l-4 65 149 111 c168 126 180 136 231 180 l37 32 3 -85 c3 -83 15
-109 28 -58 4 14 4 59 2 100 l-5 75 36 -6 c71 -11 141 -77 141 -132 0 -37 -44
-114 -92 -159 -69 -65 -250 -188 -274 -186 -26 2 -49 -22 -40 -43 7 -19 40
-19 56 0 7 8 9 15 4 15 -5 0 13 12 41 26 55 28 180 119 237 173 47 44 96 137
92 176 -1 17 -3 35 -3 42 -2 31 -62 80 -123 101 -59 21 -197 33 -268 24z"/>
<path d="M1661 2336 c-13 -16 -6 -56 10 -56 5 0 9 -47 9 -106 0 -99 2 -108 25
-136 24 -28 25 -35 25 -169 0 -86 4 -139 10 -139 6 0 10 55 10 145 l0 144 -31
36 c-31 35 -31 35 -24 122 3 49 11 98 18 111 20 41 -24 81 -52 48z"/>
<path d="M637 1788 c1 -299 6 -542 10 -540 4 1 8 234 8 517 0 425 2 514 13
510 8 -3 16 -5 18 -5 2 0 4 -60 4 -134 0 -132 0 -135 25 -154 21 -17 27 -32
32 -87 5 -60 9 -69 40 -93 l33 -27 0 -151 0 -151 61 -57 c33 -31 68 -56 77
-54 11 2 -6 22 -51 62 l-67 58 0 150 0 149 -40 38 c-38 36 -40 41 -40 99 0 55
-3 63 -25 78 -24 16 -25 20 -25 130 0 63 3 114 6 114 3 0 27 -17 52 -37 67
-55 69 -56 162 -125 47 -34 99 -75 115 -90 l30 -28 2 -272 c2 -172 7 -274 13
-276 7 -3 10 94 10 281 l0 285 -34 28 c-19 16 -73 58 -122 94 -48 36 -92 70
-98 76 -7 6 -51 39 -98 73 -48 34 -90 66 -93 71 -3 6 -9 10 -13 10 -4 0 -6
-244 -5 -542z"/>
<path d="M1534 2275 c-4 -9 -2 -26 5 -38 6 -12 12 -64 13 -116 2 -53 7 -96 13
-98 7 -2 9 35 7 107 -3 80 -1 110 8 110 6 0 10 10 8 23 -4 27 -45 37 -54 12z"/>
<path d="M2130 2273 c-54 -5 -205 -34 -220 -43 -7 -4 -10 -12 -6 -18 3 -6 31
-2 73 9 37 10 96 22 130 25 83 9 104 33 23 27z"/>
<path d="M1448 2226 c-26 -32 -28 -42 -28 -128 l0 -92 59 -61 59 -60 4 -82 c3
-71 1 -83 -14 -87 -19 -5 -25 -46 -7 -46 7 0 5 -10 -5 -25 -20 -30 -20 -35 -2
-35 8 0 19 14 25 30 5 17 14 30 18 30 4 0 7 50 6 112 l-2 112 -61 61 -60 61 0
87 c0 87 0 88 30 105 17 9 29 23 28 31 -5 26 -23 21 -50 -13z"/>
<path d="M1596 2175 c-3 -9 -3 -22 1 -28 4 -6 7 -38 7 -70 1 -54 4 -61 34 -85
l32 -27 1 -132 c0 -108 3 -133 15 -133 11 0 13 23 8 138 l-6 137 -30 27 c-29
25 -30 29 -26 90 3 35 7 70 9 78 6 21 -37 25 -45 5z"/>
<path d="M2441 2147 c-13 -34 -115 -124 -217 -191 -49 -33 -100 -67 -114 -76
-102 -68 -585 -320 -760 -398 -25 -11 -76 -34 -115 -52 -68 -31 -150 -66 -348
-149 -188 -79 -307 -115 -382 -115 -64 -1 -70 1 -73 20 -2 15 15 38 64 83 37
33 71 61 75 61 5 0 9 7 9 15 0 24 -12 18 -73 -34 -65 -54 -107 -106 -107 -132
0 -26 39 -49 80 -49 51 0 188 36 310 82 103 39 126 48 305 127 244 107 673
315 813 395 35 20 66 36 68 36 8 0 242 146 309 193 112 79 185 157 185 197 0
19 -20 10 -29 -13z"/>
<path d="M1470 2121 c-7 -15 -6 -24 7 -36 9 -9 17 -29 18 -44 2 -19 19 -43 54
-76 l51 -48 0 -135 c0 -104 3 -133 12 -124 8 8 11 53 9 139 l-2 128 -54 53
c-56 54 -70 93 -43 120 8 8 8 15 -2 27 -17 21 -37 19 -50 -4z"/>
<path d="M740 2112 c0 -5 36 -35 81 -67 116 -84 110 -72 105 -183 -4 -83 -7
-99 -25 -113 -18 -14 -21 -28 -21 -86 0 -38 -5 -74 -10 -79 -19 -19 16 -77 81
-134 67 -59 89 -71 89 -46 0 9 -4 16 -9 16 -6 0 -40 26 -77 57 -58 49 -64 58
-50 68 19 14 21 42 4 47 -8 3 -11 25 -9 64 2 47 8 64 27 85 22 23 24 33 24
115 0 49 -3 98 -6 109 -3 11 -46 50 -95 88 -86 64 -109 77 -109 59z"/>
<path d="M722 2049 c1 -13 8 -23 13 -21 15 3 12 35 -3 40 -9 3 -13 -3 -10 -19z"/>
<path d="M787 1998 c18 -18 35 -45 38 -60 5 -21 13 -28 31 -28 46 0 42 61 -3
68 -11 2 -31 14 -44 28 -12 13 -29 24 -38 24 -10 0 -5 -10 16 -32z"/>
<path d="M674 1926 c-9 -24 4 -48 23 -44 12 2 18 12 18 28 0 29 -32 41 -41 16z"/>
<path d="M998 1910 c-22 -17 -22 -19 -5 -37 14 -16 17 -39 17 -126 0 -66 -5
-115 -12 -126 -9 -15 -9 -23 1 -35 18 -22 38 -20 51 5 9 16 8 24 -4 38 -23 26
-23 219 0 236 11 7 14 19 10 32 -10 30 -31 35 -58 13z"/>
<path d="M682 1847 c-16 -19 23 -100 59 -121 l29 -17 0 -139 0 -139 40 -32
c30 -24 40 -40 40 -61 0 -30 14 -38 24 -12 11 27 7 35 -39 80 l-45 43 0 133
c0 131 0 133 -27 155 -14 13 -30 23 -34 23 -15 0 -21 42 -8 51 11 6 11 13 3
26 -14 23 -29 26 -42 10z"/>
<path d="M457 1833 c-11 -10 -8 -41 4 -49 15 -9 28 13 22 37 -5 20 -15 24 -26
12z"/>
<path d="M1434 1785 c-4 -9 -1 -26 5 -39 7 -12 11 -40 9 -61 -3 -40 -7 -45
-142 -148 -65 -50 -27 -48 42 3 111 81 122 94 122 147 0 32 5 50 18 59 13 10
15 17 6 31 -15 24 -52 29 -60 8z"/>
<path d="M415 1781 c-6 -11 42 -60 61 -61 14 0 54 43 54 58 0 17 -15 15 -30
-3 -16 -19 -39 -19 -61 1 -11 10 -19 12 -24 5z"/>
<path d="M2072 1778 c-18 -18 -14 -46 9 -58 27 -15 51 5 47 39 -3 29 -35 40
-56 19z"/>
<path d="M2374 1747 c-3 -8 -4 -87 -2 -178 1 -90 1 -248 0 -351 l-2 -187 -87
-62 c-49 -35 -141 -103 -206 -151 -65 -48 -119 -88 -120 -88 -1 0 0 118 1 263
4 248 -4 494 -15 483 -7 -7 -16 -786 -9 -786 7 0 83 53 201 140 50 37 129 95
177 130 l86 63 1 368 c1 252 -2 369 -9 369 -6 0 -13 -6 -16 -13z"/>
<path d="M1985 1709 c-47 -31 -522 -267 -710 -354 -217 -99 -405 -179 -521
-220 -50 -18 -100 -37 -111 -43 -39 -21 -215 -62 -267 -62 -59 0 -96 20 -96
54 0 51 121 188 243 276 40 28 62 60 41 60 -14 0 -216 -174 -248 -213 -36 -44
-66 -104 -66 -131 0 -27 35 -57 78 -67 48 -10 180 8 262 37 25 9 52 17 60 19
16 4 166 64 355 142 61 26 157 68 215 95 58 27 128 60 155 73 212 99 665 330
662 339 -6 17 -21 15 -52 -5z"/>
<path d="M2320 1652 c0 -37 -5 -73 -11 -79 -16 -16 -3 -43 20 -43 23 0 38 37
22 53 -6 6 -11 39 -11 74 0 35 -4 63 -10 63 -6 0 -10 -29 -10 -68z"/>
<path d="M1326 1694 c-4 -9 -2 -22 4 -28 7 -9 -4 -23 -38 -48 -81 -63 -92 -76
-92 -114 0 -24 4 -34 13 -31 6 2 11 16 10 30 -1 21 9 35 45 64 26 21 55 45 65
55 10 10 22 18 27 18 5 0 16 7 24 16 12 12 13 20 6 35 -13 23 -55 25 -64 3z"/>
<path d="M940 1621 l0 -79 58 -51 c31 -28 59 -45 61 -39 2 6 -19 31 -48 56
l-51 44 0 74 c0 43 -4 74 -10 74 -6 0 -10 -33 -10 -79z"/>
<path d="M2093 1671 c-42 -25 -54 -41 -32 -41 16 0 89 42 89 51 0 18 -18 15
-57 -10z"/>
<path d="M2248 1675 c-3 -3 -3 -67 -1 -143 5 -132 6 -138 30 -158 28 -24 35
-74 15 -110 -14 -27 6 -61 32 -51 25 10 30 36 11 57 -13 14 -16 28 -11 51 5
25 1 36 -23 59 -28 29 -54 120 -33 120 17 0 42 -37 42 -63 0 -28 16 -45 31
-30 9 9 -7 83 -19 83 -4 1 -18 10 -31 20 -26 23 -34 86 -12 99 17 11 10 65 -9
69 -9 1 -19 0 -22 -3z"/>
<path d="M683 1654 c-3 -8 -1 -20 6 -27 7 -7 11 -49 11 -106 l0 -96 42 -37
c38 -32 42 -39 31 -56 -9 -15 -9 -24 1 -37 11 -15 14 -15 36 3 l24 19 -31 39
c-17 22 -43 50 -57 63 -24 23 -26 31 -26 111 0 51 5 91 11 97 17 17 3 43 -21
43 -11 0 -23 -7 -27 -16z"/>
<path d="M2200 1491 l0 -172 -50 -53 c-48 -50 -50 -56 -50 -108 0 -39 6 -62
19 -79 10 -14 21 -36 23 -49 2 -19 9 -25 28 -25 35 0 41 41 8 54 -37 14 -51
37 -55 95 -4 51 -2 54 34 86 21 18 43 42 49 52 10 19 10 356 -1 366 -3 3 -5
-72 -5 -167z"/>
<path d="M229 1604 l-34 -36 39 -34 c28 -24 43 -31 50 -24 7 7 1 18 -19 36
l-29 25 29 23 c16 13 25 28 21 34 -11 18 -19 15 -57 -24z"/>
<path d="M311 1604 l-33 -36 33 -28 c19 -16 40 -29 47 -30 22 0 13 26 -14 41
l-26 13 27 24 c16 13 25 29 21 37 -8 22 -17 18 -55 -21z"/>
<path d="M1977 1634 c-13 -13 -7 -52 8 -58 27 -10 46 5 43 33 -3 26 -35 41
-51 25z"/>
<path d="M2147 1623 c-4 -3 -7 -70 -7 -148 l0 -141 -45 -44 -45 -44 0 -99 c0
-54 -5 -108 -11 -119 -9 -18 -8 -24 7 -35 24 -18 31 -17 44 6 7 15 6 23 -5 35
-11 11 -15 38 -15 105 l0 90 47 44 46 44 -2 153 c-1 85 -3 155 -5 157 -1 2 -6
0 -9 -4z"/>
<path d="M2085 1590 c-3 -5 -5 -60 -4 -122 l3 -112 -43 -36 -42 -36 -1 -185
c0 -101 -5 -189 -10 -196 -16 -20 -5 -58 16 -58 27 0 43 29 27 49 -9 11 -12
62 -11 196 l1 180 44 41 45 42 0 123 c0 113 -7 144 -25 114z"/>
<path d="M1882 1578 c-19 -19 -14 -37 14 -44 30 -8 47 6 42 32 -4 23 -38 30
-56 12z"/>
<path d="M2579 1540 c-18 -21 -23 -32 -15 -40 7 -7 15 -4 28 12 l17 23 24 -23
c35 -33 43 -11 11 27 -14 17 -29 31 -32 31 -4 -1 -19 -14 -33 -30z"/>
<path d="M2027 1552 c-5 -7 -7 -35 -6 -62 2 -27 0 -53 -4 -56 -15 -15 -7 -44
12 -44 25 0 36 17 22 33 -5 7 -11 42 -13 77 -2 39 -6 60 -11 52z"/>
<path d="M1800 1535 c-16 -19 -5 -47 17 -43 11 2 18 12 18 27 0 29 -17 37 -35
16z"/>
<path d="M1715 1496 c-18 -13 -16 -46 4 -46 17 0 40 30 35 45 -7 19 -15 19
-39 1z"/>
<path d="M2597 1493 c-4 -3 -7 -14 -7 -24 0 -23 27 -32 32 -11 8 31 -8 53 -25
35z"/>
<path d="M1626 1453 c-3 -3 -6 -34 -6 -68 0 -49 4 -66 20 -80 14 -13 20 -31
20 -62 0 -23 5 -43 10 -43 18 0 11 86 -9 111 -15 19 -18 34 -14 80 5 52 -4 79
-21 62z"/>
<path d="M1810 1224 c0 -218 -1 -230 -20 -242 -14 -8 -20 -23 -20 -47 0 -29
-11 -45 -87 -120 l-86 -86 21 -22 c21 -20 23 -20 39 -4 14 14 15 21 6 37 -11
17 -4 26 57 83 64 60 70 68 70 105 0 23 5 44 10 47 6 4 10 -38 10 -118 l0
-124 -67 -50 c-150 -108 -214 -153 -221 -153 -9 0 -129 81 -222 150 l-70 52 0
112 0 113 60 52 61 53 -3 126 c-2 79 -7 126 -13 124 -6 -1 -9 -48 -7 -121 l2
-119 -59 -49 -59 -48 -4 -129 -3 -130 44 -30 c24 -17 96 -68 159 -113 113 -80
117 -82 137 -65 11 10 43 33 70 52 28 19 55 39 61 45 7 5 24 19 40 30 15 11
46 34 68 51 l41 30 3 359 c1 232 -1 362 -8 369 -7 7 -10 -65 -10 -220z"/>
<path d="M1551 1353 c1 -63 4 -71 35 -104 39 -40 56 -87 42 -113 -7 -13 -6
-22 4 -33 13 -12 16 -12 28 2 11 13 11 21 2 36 -7 10 -12 29 -12 42 0 13 -4
27 -9 33 -5 5 -11 20 -13 34 -2 14 -13 29 -25 35 -20 9 -23 17 -23 72 0 50 -3
63 -15 63 -12 0 -15 -13 -14 -67z"/>
<path d="M1691 1396 c-9 -10 -8 -16 4 -26 8 -7 15 -26 15 -42 0 -16 9 -41 20
-55 17 -22 20 -41 20 -127 0 -101 -1 -103 -30 -131 -24 -23 -30 -37 -30 -71 0
-39 -4 -46 -66 -100 -38 -34 -61 -60 -53 -62 8 -1 42 24 77 56 57 53 62 61 62
100 0 34 5 45 30 64 l30 22 0 121 c0 111 -2 124 -21 141 -18 16 -20 26 -15 72
6 46 4 52 -13 52 -10 0 -24 -6 -30 -14z"/>
<path d="M1480 1317 c0 -51 4 -68 20 -82 11 -10 20 -30 20 -45 0 -14 6 -35 14
-46 12 -15 18 -17 33 -8 24 15 23 47 -2 58 -11 5 -31 25 -44 45 -19 29 -22 45
-19 88 4 40 1 53 -9 53 -9 0 -13 -17 -13 -63z"/>
<path d="M1448 1364 c-5 -4 -8 -40 -8 -80 0 -63 3 -75 20 -84 12 -6 20 -21 20
-37 0 -21 -2 -24 -15 -13 -17 14 -17 15 -15 -65 l1 -60 -60 -53 c-34 -29 -61
-60 -61 -68 0 -8 1 -14 3 -14 2 0 34 28 71 63 l67 63 -7 52 c-4 36 -3 52 5 52
6 0 11 -8 11 -18 0 -11 9 -27 20 -37 34 -31 25 -57 -43 -121 -34 -32 -77 -72
-96 -87 -20 -18 -30 -34 -27 -44 3 -8 6 -44 6 -79 0 -36 4 -64 10 -64 6 0 10
33 10 78 l0 77 89 80 c85 76 89 82 90 122 1 33 -4 45 -19 53 -16 9 -20 21 -20
64 0 40 -5 57 -20 71 -15 13 -20 33 -22 87 -2 38 -6 66 -10 62z"/>
<path d="M680 1341 c0 -6 4 -12 9 -15 4 -3 6 -16 4 -30 -5 -26 15 -46 27 -26
13 22 -9 80 -31 80 -5 0 -9 -4 -9 -9z"/>
<path d="M1381 1192 l1 -149 -56 -54 -55 -54 -2 -100 c-1 -66 2 -100 10 -103
8 -3 11 26 11 96 l0 100 57 51 58 50 2 155 c2 134 0 156 -13 156 -13 0 -15
-22 -13 -148z"/>
<path d="M2240 1296 c-5 -15 -10 -48 -10 -73 0 -28 -6 -53 -15 -63 -27 -30 10
-75 41 -49 16 13 18 45 4 54 -13 8 -13 91 1 117 8 14 8 23 0 31 -7 7 -13 2
-21 -17z"/>
<path d="M1277 1293 c-4 -3 -7 -19 -7 -33 0 -15 -7 -33 -15 -40 -8 -7 -15 -19
-15 -28 0 -9 -9 -25 -20 -37 -20 -22 -20 -22 -2 -45 23 -29 52 -21 52 14 0 14
-4 27 -9 30 -13 8 -2 42 20 62 11 10 19 30 19 51 0 31 -9 41 -23 26z"/>
<path d="M1693 1155 c6 -42 4 -48 -28 -84 -31 -34 -35 -45 -35 -93 0 -53 -2
-57 -43 -94 -24 -22 -55 -48 -69 -59 l-26 -20 19 -30 19 -30 0 25 c0 18 18 44
60 85 58 57 60 61 60 112 0 46 4 56 35 90 29 31 35 44 30 67 -3 16 -5 39 -5
52 0 13 -5 24 -11 24 -8 0 -10 -14 -6 -45z"/>
<path d="M1080 960 c0 -126 -3 -230 -7 -230 -3 0 -22 12 -42 28 -20 15 -59 43
-87 62 -28 19 -78 54 -110 78 -166 120 -187 133 -195 125 -6 -6 15 -26 53 -53
35 -24 86 -60 113 -80 28 -20 105 -75 173 -123 l122 -87 0 255 c0 163 -4 255
-10 255 -6 0 -10 -83 -10 -230z"/>
<path d="M2620 1172 c0 -10 12 -25 26 -33 l26 -14 -33 -27 c-26 -22 -31 -30
-21 -40 10 -10 20 -4 49 25 l37 37 -34 35 c-38 39 -50 43 -50 17z"/>
<path d="M2704 1179 c-4 -7 4 -22 20 -36 l27 -23 -27 -23 c-45 -39 -20 -53 27
-16 21 17 39 34 38 37 0 4 -18 22 -39 40 -27 23 -41 29 -46 21z"/>
<path d="M970 1077 c0 -79 2 -85 29 -111 19 -18 31 -24 36 -16 4 6 -5 21 -19
33 -24 21 -26 29 -26 100 0 45 -4 77 -10 77 -6 0 -10 -34 -10 -83z"/>
<path d="M2313 1149 c-6 -6 -9 -26 -6 -43 5 -31 1 -35 -78 -94 -126 -93 -160
-123 -154 -132 3 -4 61 33 129 83 121 90 123 93 129 137 6 48 -2 67 -20 49z"/>
<path d="M920 1069 c0 -44 4 -68 10 -64 6 3 10 35 10 71 0 36 -4 64 -10 64 -6
0 -10 -30 -10 -71z"/>
<path d="M850 1055 l0 -54 69 -56 c38 -31 72 -62 75 -70 6 -17 42 -20 51 -5 3
6 3 20 0 31 -6 17 -13 20 -36 15 -16 -3 -29 -2 -29 2 0 4 -25 27 -55 50 -53
42 -55 45 -55 93 0 27 -4 49 -10 49 -5 0 -10 -25 -10 -55z"/>
<path d="M1577 1093 c-4 -4 -5 -27 -1 -52 3 -25 2 -55 -3 -67 -7 -17 -61 -69
-130 -125 -7 -5 -13 -20 -13 -33 0 -13 -7 -29 -15 -36 -22 -18 -18 -48 6 -55
31 -10 55 16 40 43 -15 28 -14 62 2 68 8 3 41 31 74 63 57 54 60 60 61 106 1
27 6 53 11 58 7 7 7 15 0 24 -13 14 -22 16 -32 6z"/>
<path d="M756 1044 c-9 -8 -16 -19 -16 -23 0 -8 305 -241 315 -241 3 0 5 9 5
20 0 13 -11 24 -33 34 -18 7 -77 46 -130 86 -82 63 -96 77 -91 96 8 31 -28 51
-50 28z"/>
<path d="M606 932 c-12 -11 -4 -19 80 -77 47 -33 118 -84 157 -113 40 -30 92
-65 117 -80 42 -25 43 -27 20 -32 -15 -3 -33 -20 -45 -42 -18 -34 -24 -37 -68
-40 -45 -3 -51 -6 -71 -40 l-21 -37 24 -46 c23 -43 25 -45 70 -45 43 0 47 -3
66 -38 18 -34 24 -37 67 -40 43 -3 49 -6 70 -43 21 -37 24 -39 72 -39 50 0 52
1 70 40 18 38 22 40 65 40 44 1 47 2 68 44 l21 43 -24 41 c-23 39 -28 42 -69
42 -41 0 -46 3 -59 34 -18 42 -31 51 -78 47 -33 -2 -40 1 -58 31 -19 32 -54
59 -253 200 -49 35 -117 84 -152 110 -35 25 -66 44 -69 40z m457 -363 c19 -34
20 -36 2 -62 -14 -22 -25 -27 -59 -27 -36 0 -44 4 -59 30 -16 27 -16 32 -2 59
11 22 24 31 47 34 47 5 48 5 71 -34z m-135 -69 c27 -36 27 -41 2 -73 -30 -37
-86 -34 -111 8 -23 37 -23 37 2 69 29 37 78 36 107 -4z m268 -5 c17 -32 18
-38 4 -63 -13 -22 -24 -28 -57 -30 -38 -3 -43 0 -59 29 -15 30 -15 35 0 66 14
29 20 33 54 33 34 0 41 -4 58 -35z m-132 -72 c14 -29 14 -36 1 -68 -14 -31
-19 -35 -53 -35 -27 1 -42 7 -54 24 -24 33 -25 47 -5 81 15 25 25 30 57 30 34
1 40 -3 54 -32z m262 -5 c15 -30 15 -34 -1 -65 -16 -29 -23 -33 -57 -33 -35 0
-40 3 -54 35 -13 31 -13 39 1 65 13 26 21 30 55 30 34 0 42 -4 56 -32z m-127
-76 l20 -39 -22 -32 c-18 -26 -28 -31 -57 -29 -27 2 -38 10 -53 36 -18 31 -18
34 -3 67 15 31 21 35 56 35 36 0 41 -4 59 -38z"/>
<path d="M2375 906 c-152 -105 -297 -211 -302 -219 -3 -6 4 -18 15 -28 26 -21
27 -28 5 -74 -15 -32 -21 -35 -58 -35 -36 0 -42 4 -59 35 -18 33 -22 35 -71
35 -49 0 -53 -2 -71 -35 -19 -36 -27 -39 -81 -36 -27 2 -35 -3 -58 -38 -26
-42 -39 -54 -29 -26 5 11 2 13 -10 9 -9 -3 -16 -10 -16 -15 0 -5 -11 -9 -25
-9 -17 0 -32 -10 -47 -35 -13 -19 -29 -35 -37 -35 -7 0 -52 28 -100 63 -181
133 -191 139 -191 118 0 -10 66 -60 160 -122 30 -20 64 -46 74 -57 11 -12 29
-22 40 -22 14 0 28 -13 42 -39 21 -38 21 -39 2 -75 -17 -34 -22 -36 -66 -36
-45 -1 -48 -3 -68 -44 l-21 -42 24 -42 c24 -40 27 -42 74 -42 46 0 50 2 75 40
24 36 31 40 68 40 39 0 44 3 65 40 21 38 24 40 72 40 29 0 49 4 49 11 0 6 9
24 21 40 16 23 28 29 58 29 38 0 61 17 74 53 5 13 17 17 50 17 36 0 47 5 63
28 11 15 23 35 27 45 5 13 18 17 55 17 45 0 49 2 65 35 15 31 21 35 54 35 46
0 53 5 81 53 l22 38 -26 45 c-24 41 -28 44 -70 44 -40 0 -46 -3 -70 -40 -23
-35 -32 -40 -64 -40 -30 0 -39 5 -49 26 -6 14 -9 29 -6 34 3 5 72 55 153 111
81 56 149 104 151 106 3 2 0 7 -5 12 -5 4 -22 -1 -39 -13z m-15 -254 c19 -30
19 -31 -3 -63 -17 -25 -31 -33 -59 -36 -33 -3 -39 0 -53 26 -20 39 -19 47 6
82 17 25 26 29 55 26 27 -3 40 -11 54 -35z m-136 -76 c17 -31 17 -35 1 -65
-15 -29 -20 -32 -56 -29 -32 2 -44 9 -57 30 -16 26 -15 30 2 63 16 30 24 35
55 35 31 0 39 -5 55 -34z m-266 -1 c27 -58 1 -105 -56 -105 -31 0 -40 5 -54
31 -22 39 -22 41 3 73 29 37 91 37 107 1z m132 -75 c34 -48 6 -95 -60 -102
-30 -3 -37 1 -48 25 -39 81 57 149 108 77z m-261 -11 c12 -27 12 -36 -3 -65
-14 -31 -20 -34 -58 -34 -39 0 -45 4 -60 35 -16 33 -16 36 0 65 15 26 22 30
62 30 41 0 46 -3 59 -31z m-137 -73 c15 -31 15 -36 0 -67 -14 -28 -23 -35 -53
-37 -32 -3 -39 1 -57 29 -19 31 -19 35 -5 63 20 39 30 46 69 46 25 0 33 -6 46
-34z m270 1 c15 -32 15 -36 -4 -65 -17 -27 -26 -32 -59 -32 -33 0 -41 4 -55
32 -15 29 -15 34 0 65 14 30 20 33 59 33 39 0 45 -3 59 -33z m-136 -79 c15
-30 15 -34 -1 -65 -16 -29 -23 -33 -57 -33 -32 0 -41 5 -57 31 -18 30 -18 34
-3 65 14 31 20 34 59 34 38 0 44 -4 59 -32z m-133 -79 c17 -30 17 -32 -4 -65
-18 -29 -26 -34 -60 -34 -33 0 -41 4 -55 32 -15 30 -15 34 1 65 16 29 23 33
59 33 35 0 43 -4 59 -31z m-135 -83 l20 -34 -21 -31 c-18 -24 -29 -31 -57 -31
-30 0 -38 5 -54 34 -18 34 -18 35 3 65 17 24 30 31 56 31 27 0 37 -6 53 -34z"/>
<path d="M628 715 c-16 -13 -28 -29 -28 -35 0 -15 26 -12 40 5 12 14 15 14 30
0 18 -16 40 -20 40 -7 0 5 -12 20 -27 34 l-28 27 -27 -24z"/>
<path d="M1506 727 c-24 -17 -17 -51 11 -55 27 -4 42 34 21 54 -12 12 -17 12
-32 1z"/>
<path d="M647 663 c-13 -12 -7 -53 7 -53 17 0 25 18 18 43 -5 18 -14 22 -25
10z"/>
</g>
</svg>
